<?xml version="1.0" encoding="utf-8"?>
<!-- Generator: Adobe Illustrator 18.1.0, SVG Export Plug-In . SVG Version: 6.00 Build 0)  -->
<svg version="1.1" id="Layer_1" xmlns="http://www.w3.org/2000/svg" xmlns:xlink="http://www.w3.org/1999/xlink" x="0px" y="0px"
	 viewBox="0 0 211 203" style="enable-background:new 0 0 211 203;" xml:space="preserve">
<style type="text/css">
	.st0{fill:none;stroke:black;stroke-width:8;stroke-miterlimit:10;}
	.st1{fill:none;stroke:black;stroke-width:8;stroke-miterlimit:10;}

	<defs>
    <style>
      .st0 {
        stroke-dasharray: 1000;
        stroke-dashoffset:0;
        stroke-color: white;
        -webkit-animation: dash 6s linear forwards;
        -o-animation: dash 6s linear forwards;
        -moz-animation: dash 6s linear forwards;
        animation: dash 6s linear forwards;
      }

      #Layer_1:hover .st0 {
      	fill:blue;
      }

      @-webkit-keyframes dash {
        from {
          stroke-dashoffset: 1000;
        }
        to {
          stroke-dashoffset: 0;
        }
        fill-mode: forwards;
      }
  </style>
</defs>

</style>
<g>
	<g>
		<path class="st0" d="M6,192.8c4-2.6,7.6,0.8,11.5,1c15.2,0.7,30.3,2.7,45.5,3.6c8.5,0.5,17.1,0.6,25.4-0.7c5-0.8,9.4,0.2,14,0.8
			c7.7,1,15.4,0.1,23,0.3c13.5,0.4,25.9-4.4,39-5.5c6-0.5,11.8-2.5,17.5-4.4c8.9-2.9,11.8-9.7,11.9-18c0.3-12.6,2-25,3.1-37.5
			c1.6-19.2,4-38.3,4.8-57.5c0.5-12.4,3.3-24.5,2.3-37c-0.7-8.5-2.1-16.6-7.5-23.5c-2.3-2.9-4.9-4.4-8.5-5.1
			c-6.8-1.2-13.6-1.8-20.5-2C155.7,7,143.9,6.3,132,6.5c-10.8,0.2-21.7,0.1-32.5-0.2C84.3,5.9,69,6.6,54,9.1
			C40.9,11.3,28.8,15.6,21.5,28c-4.8,8.2-5.9,17.3-6.4,26.5c-1,16.4-2.3,32.7-4.5,49c-0.9,6.8-0.8,13.7-1.1,20.5
			c-0.4,11.3-1.1,22.6-0.8,34c0.2,6.1,1.1,12.4-0.3,18.5"/>
		<path class="st0" d="M107.5,92.5c-1.4-18.2,3.6-29.4,23.5-33.9c8.2-1.9,16.5-3,25-3.1c5.7-0.1,8.4-3.2,7.4-8.9
			c-1-5.7,0.2-11.4,0.3-17c0.1-5.8-1.9-8.7-7.6-9.6c-7.5-1.2-14.8,0.2-22,1.7c-12.5,2.4-24.3,7.1-34.9,14C89.1,42.2,82,51.6,78,63
			c-1.1,3.1-0.4,6.3-0.5,9.5c-0.2,8.2,0.4,16.5-2,24.5"/>
		<path class="st0" d="M71.5,121c4.1,12.1,1,24.4,0.7,36.5c-0.4,12.8-2.8,25.6-2.7,38.5"/>
		<path class="st0" d="M109,93.5c4.2,1.1,8.3,0.3,12.5,0c7.5-0.5,8.8,1,7.9,7.5c-0.7,4.9,1.2,9.7-0.3,14.5c-0.6,2,0.9,4.7-1.6,5.9
			c-2.9,1.5-6,2.9-9.5,1.6"/>
		<path class="st0" d="M75,95c-6.9,1.9-14,0.6-21,1.5c-1.8,0.2-3.8,0-5.5,0.6c-2.7,0.9-4.3,2.6-4.1,5.9c0.4,5.8,0.4,11.7,0.6,17.5"
			/>
		<path class="st0" d="M71,123c-7-0.5-14,1.6-21-0.5c-3.1-0.9-6-2.8-9.5-2"/>
	</g>
</g>
<path class="st1" d="M121,123.1c-8.6-0.5-17.2-0.1-25.7,1.1c-1.3,3.4-1.6,7-1.8,10.6c-1.5,20.4-2.1,40.8-2,61.2"/>
<path class="st1" d="M9,177c0,5,0,10,0,15"/>
</svg>
