<?xml version="1.0" encoding="utf-8"?>
<!-- Generator: Adobe Illustrator 18.1.0, SVG Export Plug-In . SVG Version: 6.00 Build 0)  -->
<svg version="1.1" id="Layer_1" xmlns="http://www.w3.org/2000/svg" xmlns:xlink="http://www.w3.org/1999/xlink" x="0px" y="0px"
	 viewBox="0 0 920 385.3" style="enable-background:new 0 0 920 385.3;" xml:space="preserve">
<style type="text/css">
	.st0{fill:none;stroke:black;stroke-width:8;stroke-miterlimit:10;}

	<defs>
    <style>
      .st0 {
        stroke-dasharray: 2500;
        stroke-dashoffset:0;
        stroke-color: white;
        -webkit-animation: dash 4s linear forwards;
        -o-animation: dash 4s linear forwards;
        -moz-animation: dash 4s linear forwards;
        animation: dash 4s linear forwards;
      }

      @-webkit-keyframes dash {
        from {
          stroke-dashoffset: 2500;
        }
        to {
          stroke-dashoffset: 0;
        }
      }
  </style>
  <script>
  </script>
</defs>

</style>
<path class="st0" d="M61.6,248.3c23.3-32.8,37.8-71.9,41.6-112c1.6-17.1,1.3-34.5,3.9-51.5s8.6-34.2,20.7-46.4s31.4-18.3,47.2-11.5
	c9.7,19.4,2.9,43.6-10.5,60.6S132.1,116,114,127.9c-5.7,3.7-11.6,7.8-14.7,13.8c-2.4,4.5-3,9.8-3.4,14.9c-1,14.2-0.4,28.4,1.8,42.5
	c2.1,13.3,10.2,29.6,23.4,27.4c8.7-1.4,13.8-10.5,16.8-18.7c5.5-15.4,8.3-31.8,8.1-48.1c-1.4,14-2.8,28.1-4.2,42.1
	c-0.9,8.9-1.5,18.7,3.9,25.8c6.8,8.9,21.1,9.2,30.3,2.8c9.2-6.4,13.8-17.7,15.5-28.8c1.7-11.1,0.8-22.4,1.5-33.6
	c6.8,59.7-5.6,121.5-35,173.9c-7.4,13.2-17,26.6-31.4,30.9c-3.5,1-7.4,1.4-10.6-0.2c-3.5-1.8-5.5-5.7-7.1-9.3
	c-5-11.5-9-23.8-8.1-36.3c0.9-12.5,7.6-25.2,19-30.4c13.2-5.9,29.1-0.9,42.6-6c8.6-3.2,15.2-10.2,21.4-16.9
	c14.1-15.2,28.8-31.4,33.3-51.6c1.8-8.1,1.9-16.5,3.1-24.7c1.4-9.4,4.4-18.6,8.8-27c3.8-7.4,10.3-15,18.6-14.3
	c12,0.9,15.3,16.7,15.4,28.7c-2.4-17.2-24.4-28.2-39.7-19.8c-2.7,1.5-5.2,3.5-6.7,6.1c-1.9,3.2-2.2,7-2.4,10.7
	c-0.4,10.7,0.8,21.5,3.6,31.9c2.3,8.5,7,18,15.8,19.3c10,1.5,17.6-8.7,21.5-18c5.9-14.3,8.9-29.8,8.7-45.3
	c-2.1,14.4-4.3,28.9-6.4,43.3c-0.8,5.6-1.5,11.9,2.1,16.2c6.2,7.5,19.4,2,23.3-6.9s2.1-19.1,2.4-28.8c0.4-11.6,4.2-23.1,10.6-32.7
	c5.2-7.7,14.6-14.9,23.2-11.1c8,3.5,9.6,14.1,9.9,22.8c0.7,18.2,0.8,36.5,0.6,54.8c9.7,2.1,20.5-4.4,23.2-14"/>
<path class="st0" d="M378.6,226c14.2-31.6,21.8-65.8,29.3-99.6c3.7-16.5,7.3-33,11-49.5c6.3,29.8,12.9,59.6,19.5,89.4
	c7.4-11.2,7.6-25.6,12.1-38.3c7-19.9,24.3-35.3,29.3-55.8c1.8,38-1.3,76.2-9,113.4c-1.7,8.4-3.7,17.2-1.1,25.3s12,14.7,19.8,11.2"/>
<path class="st0" d="M500.1,221.5c0.7-0.4,0.7,1.4,0,1"/>
<path class="st0" d="M531.1,231.8c4.4-18.2,20.4-30.8,33.5-44.3c22.4-23.2,38-52.8,44.5-84.4c3.2-15.5,2.8-34.5-10.1-43.6
	c-7.7-5.4-18.7-5.5-26.7-0.3s-12.4,15-11.3,24.4c2.1,17.4,19.7,27.6,33.2,38.7c17.4,14.4,30.2,34.3,35.9,56.2c0.5,2,1,4.2,0.5,6.2
	c-0.7,2.7-2.9,4.6-5,6.3c-5.2,4.4-10.4,8.8-15.6,13.1c-8,6.7-16.9,13.7-27.3,13.8c-11.3,0-20.8-8.3-28.3-16.7
	c-14.6-16.2-26.6-34.7-35.6-54.6c17.2,15.1,34.4,30.2,51.6,45.3c8.7,7.6,17.5,15.3,28.1,19.8c10.6,4.5,23.5,5.1,33.2-1.1
	c13.7-8.8,16.4-27.3,17.6-43.5c2.6-34.9,4.3-70.5-4.7-104.3c5.6,41.1,7.9,82.6,7,124.1c-0.2,7.9,0.5,17.6,7.7,21.1
	c6.2,3,13.9-1.1,17.3-7.1c3.4-6,3.6-13.1,3.7-20c0.2-10.9,0.3-21.8,0.5-32.7c0.2-10.8,0.7-22.6,7.8-30.7c7-7.9,19.9-9.9,29-4.4
	c9.1,5.5,13.3,17.8,9.4,27.7c3.5-11.4-3.7-24.9-15.1-28.4s-24.9,3.7-28.4,15c-3.2,10.3,1.2,21.3,0.7,32.1
	c-0.4,8.5-3.9,16.6-5.4,25.1s-0.4,18.3,6.4,23.6c8.4,6.5,21.5,2.2,28-6.1s8.1-19.4,9.6-29.9c1.7-12.8,3.5-25.7,5.2-38.5
	c-1.7,17.4-3.4,34.7-5.1,52.1c-0.5,5.4-0.9,11.3,2.1,15.8c5.3,7.9,18.3,6.4,24.8-0.5c6.5-6.9,8.4-16.9,9.9-26.3
	c2.4-14.9,4.8-29.8,7.2-44.7c0.8-4.9,1.7-10.1,4.5-14.2c4.9-7.3,15.9-9.5,23.3-4.8c7.4,4.7,10.1,15.6,5.6,23.2
	c2.3-6.9-0.1-15-5.6-19.7c-5.5-4.7-14-5.5-20.3-2.1c-10.7,5.7-12.9,19.8-14,31.8c-1.2,14.4-2.4,28.7-3.6,43.1
	c-0.5,6.2-1,12.8,2.1,18.2c3.7,6.6,11.6,9.7,19.2,9.9c18.9,0.5,35.5-14.4,42.9-31.8c7.4-17.4,7.7-36.9,7.8-55.8
	c0.2-32.1,0.4-64.3,0.7-96.4c1.1,25.9-0.1,51.9-3.6,77.5c1.7-7.6-0.7-15.4-0.9-23.1c-0.2-7.8,3-16.9,10.5-18.7
	c8.1-2,15.3,5.4,19.6,12.6c6.9,11.2,11.8,25.3,6.8,37.4c-5,12.2-23.9,18-31.6,7.3c10.3,20.1,20.6,40.1,31,60.2c1.9,3.8,4,7.7,7.5,10
	c8.5,5.7,20.2-0.8,25.8-9.4c5.5-8.5,7.8-19,14.2-27"/>
<path class="st0" d="M622.1,109.5c2,7.6,11,11.3,18.9,11.2c17.2,0,32.1-11.4,45.5-22.2"/>
</svg>
