<?xml version="1.0" encoding="utf-8"?>
<!-- Generator: Adobe Illustrator 18.1.0, SVG Export Plug-In . SVG Version: 6.00 Build 0)  -->
<svg version="1.1" id="Layer_1" xmlns="http://www.w3.org/2000/svg" xmlns:xlink="http://www.w3.org/1999/xlink" x="0px" y="0px"
	 viewBox="0 0 188 170" style="enable-background:new 0 0 188 170;" xml:space="preserve">
<style type="text/css">
	.st0{fill:none;stroke:black;stroke-width:8;stroke-miterlimit:10;}

	<defs>
    <style>
      .st0 {
        stroke-dasharray: 1000;
        stroke-dashoffset:0;
        stroke-color: white;
        -webkit-animation: dash 6s linear forwards;
        -o-animation: dash 6s linear forwards;
        -moz-animation: dash 6s linear forwards;
        animation: dash 6s linear forwards;
      }

      @-webkit-keyframes dash {
        from {
          stroke-dashoffset: 1000;
        }
        to {
          stroke-dashoffset: 0;
        }
      }
  </style>
  <script>
  </script>
</defs>

</style>
<g>
	<g>
		<path class="st0" d="M178.5,41.5c1,8.8,2.2,17.6,3,26.5c1.5,18.2,2,36.3-0.3,54.5c-0.9,7.2-1.3,14.5-3.6,21.5
			c-3.7,11.6-10.4,16-23.6,16.7c-13.6,0.8-27.3-0.7-41-0.7c-10.7,0-21.4,1.6-32,1.6c-10.5,0.1-21,0.9-31.5-0.1
			c-6.3-0.6-12.7,0.3-19,0.3c-16.6,0.1-16.5-3.9-18.4-17c-1.3-9.2-3.1-18.3-4-27.5c-1.4-15.6-4.3-31.3-2.4-46.9
			c1.2-9.9-1-19.3-0.4-29c0.6-9.7,1.1-19.3,6.1-28c1.8-3.1,4-4.6,7.5-5c19-2.5,37.8-3.9,57-1.2c12.9,1.9,25.6,4.9,38.5,6
			c5.8,0.5,11.6,1.2,17.5,1.3c8.6,0.2,17,1.8,25.5,2.8c8.6,1,13.7,6.6,17.9,13.1c1.8,2.7,3.9,5.7,3.1,9.4"/>
		<path class="st0" d="M161,143c-2.9-1.7-5.5-2.7-9.1-1.2c-2.3,0.9-5.3,0.5-7.9,0.1c-4.9-0.6-6.3-2.3-5.9-7.4c0.4-5.7-0.7-11.3-1-17
			c-0.2-5.8,0.1-11.7,0.4-17.5c0.4-7.4-2-10.8-9.5-13.1c-6-1.8-10.5-0.2-15.1,5c-3.3,3.8-4.4,7.4-4.2,12.6c0.5,10.3-0.6,20.7-0.7,31
			c-0.1,5.4,0.8,6.2,5.4,6.2"/>
		<path class="st0" d="M36,136.5c0.4-0.2-1.2-1.7,1-1.1c7.3,1.9,14.6-0.8,22-1c2.6-0.1,3.6-2.2,3.5-4.9c-0.4-21.8,1.3-43.7-1.4-65.5
			c-0.5-3.9-3.9-7.7-10.1-6.9c-5.1,0.6-10.4,1.4-14.9,3.6c-3.8,1.9-7,1.7-10.6,1"/>
		<path class="st0" d="M107.5,77.5c0-2.8,0.4-5.1,2.4-7.6c2.7-3.4-2.7-10.2-7.8-9.8c-3.9,0.3-7.7,0.2-11.5,0.4
			c-3,0.1-4.6,1.5-4.5,4.5c0,0.2-0.5,0.3-0.5,0.5c0.7,16-1.5,32-0.1,48c0.5,5,0.1,10,0.4,15c0.3,4.5,0.2,9,1.1,13.5"/>
		<path class="st0" d="M156,140c0.3-12.5,0.5-25,1.1-37.5c0.5-9.4-1.9-18.3-4.7-27c-3.2-9.7-10.8-15.7-19.4-15.1
			c-4,0.3-7.4,2-10.4,4.1c-3.6,2.6-7.3,3.9-11.6,3.9"/>
		<path class="st0" d="M31.5,63.5c1.5,6.2,0.1,12.3-0.1,18.5c-0.4,13.5,2.1,26.7,3.8,40c0.5,4.4-0.7,8.7,0.5,13
			c-2.1,0.9-4.1,0.4-6.1,0.5"/>
		<path class="st0" d="M25.5,38.5c0,4.5,2.7,7.1,6.5,8.4c7.1,2.6,16,3.2,21.1-2.9c4.8-5.8,4.5-12.2-1.6-17.1
			c-4.7-3.7-10.1-4.5-15.5-2.4C30.1,26.9,25.8,31,25.5,38"/>
		<path class="st0" d="M108.5,140.5c-6.3,3.8-13.1,3.4-20,2c-0.9-0.2-1.7-0.4-2.5,0.3"/>
	</g>
</g>
</svg>
