<?xml version="1.0" encoding="utf-8"?>
<!-- Generator: Adobe Illustrator 18.1.0, SVG Export Plug-In . SVG Version: 6.00 Build 0)  -->
<svg version="1.1" id="Layer_1" xmlns="http://www.w3.org/2000/svg" xmlns:xlink="http://www.w3.org/1999/xlink" x="0px" y="0px"
	 viewBox="0 0 204 100" style="enable-background:new 0 0 204 100;" xml:space="preserve">
<style type="text/css">
	.st0{fill:none;stroke:black;stroke-width:4;stroke-miterlimit:10;}
	.st1{fill:none;stroke:black;stroke-width:4;stroke-miterlimit:10;}

	<defs>
    <style>
      .st0 {
        stroke-dasharray: 100;
        stroke-dashoffset:0;
        stroke-color: white;
        -webkit-animation: dash 6s linear forwards;
        -o-animation: dash 6s linear forwards;
        -moz-animation: dash 6s linear forwards;
        animation: dash 6s linear forwards;
      }

      #Layer_1:hover .st0 {
      	fill:blue;
      }

      @-webkit-keyframes dash {
        from {
          stroke-dashoffset: 100;
        }
        to {
          stroke-dashoffset: 0;
        }
        fill-mode: forwards;
      }
  </style>
</defs>

</style>
<g>
	<g>
		<path class="st0" d="M11.5,29c5.5-0.1,10-2.3,14-6c3.1-2.7,4.8-10.2,3-14c-1.3-2.8-7-5.6-10-5c-5.1,1.1-9.6,5.8-8.9,11
			c1.4,10,0.3,20,1.3,30c0.2,1.8-0.6,3.7-0.9,5.5"/>
		<path class="st0" d="M149.5,20.5c2.8-1.8,0-3.8-0.6-4.3c-1.6-1.4-4-1.1-5.8-0.1c-3.6,1.9-7,12.6-5.5,16.4c1.4,3.8,6.5,5.2,10.5,3
			c1.8-1,3-3.3,5.5-3"/>
		<path class="st0" d="M170.5,71c-10.6,2.4-21.2,2.6-32,1.7c-6.1-0.5-12.3,0.9-18.5,1.3c-7.2,0.5-14.3,2.5-21.5,0.5"/>
		<path class="st0" d="M178.5,22c6-0.6,11.4,2.2,17,3.6c1.6,0.4,3.1,1.3,3,3.4c0,2.2-1.2,3.4-3,4.6c-4.4,3-9.4,1.4-14.1,2.4"/>
		<path class="st0" d="M94,20c1.9,4.3,3.1,8.9,3.9,13.5c1.1,6-4.7,11.4-10.4,9.3c-2.2-0.8-4.1-0.4-6.1-0.8"/>
		<path class="st0" d="M126,23c-4,1.3-8,2.6-12,4c-2.6,1-4.4,5.7-3.5,8.5c0.9,2.6,6.8,5.9,9.5,5c3.6-1.2,6.8-3.3,10.5-4"/>
		<path class="st0" d="M52,20.8c-8.1-2.3-17.1,5.7-16,13.8c0.5,3.8,0.7,7.7,1,11.5"/>
		<path class="st0" d="M159,59c6.7,2.3,9.7,8.7,13.9,13.6c0.5,0.6,0,2.4-0.5,3.4c-2.9,6.1-8.4,10.4-11.6,16.5
			c-0.4,0.7-2.2,0.7-3.4,1.1"/>
		<path class="st0" d="M111.5,16c-5.6-1.1-11-0.5-16,2.5c-1.1,0.7-2.4,0.1-3.5,0.2C86,19,79.8,17,74,20"/>
		<path class="st0" d="M163,0.5c-0.1,3.2,1.1,6.2,1.1,9.5c0.1,6.3-1.7,12.3-1.5,18.5c0,1.7-2.4,4.9,1.9,5.3"/>
		<path class="st0" d="M196.5,12.5c0.4,2.2-1.2,1.8-2.5,2c-4.4,0.8-8.5,2-10,7"/>
		<path class="st0" d="M179.5,16.5c-4.9-1.1-9.6,2.2-14.5,1"/>
		<path class="st0" d="M70,19.5c-7.6,4.1-12.7,9.8-12.5,19c0.1,2.9,1.2,5.7,4,6.3c2.6,0.6,5.5,1,8-1.3c6.1-5.4,10-18.5,1-24.1"/>
	</g>
</g>
<path class="st1" d="M112,34.9c6.3,1.6,13.5-3.4,14.1-9.9"/>
<path class="st1" d="M156,17c2.3,0,4.7,0,7,0"/>
</svg>
